<mxfile host="app.diagrams.net" modified="2024-06-16T22:54:18.571Z" agent="Mozilla/5.0 (X11; Linux x86_64; rv:126.0) Gecko/20100101 Firefox/126.0" etag="SVkOwIVRYL0BOYYjFS8m" version="24.5.4" type="github">
  <diagram id="C5RBs43oDa-KdzZeNtuy" name="Page-1">
    <mxGraphModel dx="1210" dy="652" grid="1" gridSize="10" guides="1" tooltips="1" connect="1" arrows="1" fold="1" page="1" pageScale="1" pageWidth="827" pageHeight="1169" math="0" shadow="0">
      <root>
        <mxCell id="WIyWlLk6GJQsqaUBKTNV-0" />
        <mxCell id="WIyWlLk6GJQsqaUBKTNV-1" parent="WIyWlLk6GJQsqaUBKTNV-0" />
        <mxCell id="C_qJOQfqsXr8uZepRgQi-5" value="Overlay" style="swimlane;fontStyle=1;align=center;verticalAlign=top;childLayout=stackLayout;horizontal=1;startSize=26;horizontalStack=0;resizeParent=1;resizeParentMax=0;resizeLast=0;collapsible=1;marginBottom=0;whiteSpace=wrap;html=1;" vertex="1" parent="WIyWlLk6GJQsqaUBKTNV-1">
          <mxGeometry x="280" y="220" width="326" height="320" as="geometry" />
        </mxCell>
        <mxCell id="C_qJOQfqsXr8uZepRgQi-9" value="&lt;div&gt;- window_height : int&lt;br&gt;&lt;/div&gt;" style="text;whiteSpace=wrap;html=1;" vertex="1" parent="C_qJOQfqsXr8uZepRgQi-5">
          <mxGeometry y="26" width="326" height="24" as="geometry" />
        </mxCell>
        <mxCell id="C_qJOQfqsXr8uZepRgQi-11" value="&lt;div&gt;- window_width : int&lt;br&gt;&lt;/div&gt;" style="text;whiteSpace=wrap;html=1;" vertex="1" parent="C_qJOQfqsXr8uZepRgQi-5">
          <mxGeometry y="50" width="326" height="24" as="geometry" />
        </mxCell>
        <mxCell id="C_qJOQfqsXr8uZepRgQi-7" value="" style="line;strokeWidth=1;fillColor=none;align=left;verticalAlign=middle;spacingTop=-1;spacingLeft=3;spacingRight=3;rotatable=0;labelPosition=right;points=[];portConstraint=eastwest;strokeColor=inherit;" vertex="1" parent="C_qJOQfqsXr8uZepRgQi-5">
          <mxGeometry y="74" width="326" height="8" as="geometry" />
        </mxCell>
        <mxCell id="C_qJOQfqsXr8uZepRgQi-8" value="+ overlay()" style="text;strokeColor=none;fillColor=none;align=left;verticalAlign=top;spacingLeft=0;spacingRight=4;overflow=hidden;rotatable=0;points=[[0,0.5],[1,0.5]];portConstraint=eastwest;whiteSpace=wrap;html=1;" vertex="1" parent="C_qJOQfqsXr8uZepRgQi-5">
          <mxGeometry y="82" width="326" height="26" as="geometry" />
        </mxCell>
        <mxCell id="C_qJOQfqsXr8uZepRgQi-10" value="+ ~overlay()" style="text;whiteSpace=wrap;html=1;" vertex="1" parent="C_qJOQfqsXr8uZepRgQi-5">
          <mxGeometry y="108" width="326" height="32" as="geometry" />
        </mxCell>
        <mxCell id="C_qJOQfqsXr8uZepRgQi-12" value="+ within_bounds() : boolean" style="text;whiteSpace=wrap;html=1;" vertex="1" parent="C_qJOQfqsXr8uZepRgQi-5">
          <mxGeometry y="140" width="326" height="30" as="geometry" />
        </mxCell>
        <mxCell id="C_qJOQfqsXr8uZepRgQi-13" value="+ point_in_bounds() : boolean" style="text;whiteSpace=wrap;html=1;" vertex="1" parent="C_qJOQfqsXr8uZepRgQi-5">
          <mxGeometry y="170" width="326" height="30" as="geometry" />
        </mxCell>
        <mxCell id="C_qJOQfqsXr8uZepRgQi-14" value="+ print() : string" style="text;whiteSpace=wrap;html=1;" vertex="1" parent="C_qJOQfqsXr8uZepRgQi-5">
          <mxGeometry y="200" width="326" height="30" as="geometry" />
        </mxCell>
        <mxCell id="C_qJOQfqsXr8uZepRgQi-15" value="+ draw() : void" style="text;whiteSpace=wrap;html=1;" vertex="1" parent="C_qJOQfqsXr8uZepRgQi-5">
          <mxGeometry y="230" width="326" height="30" as="geometry" />
        </mxCell>
        <mxCell id="C_qJOQfqsXr8uZepRgQi-56" value="+ location() : uchar" style="text;whiteSpace=wrap;html=1;" vertex="1" parent="C_qJOQfqsXr8uZepRgQi-5">
          <mxGeometry y="260" width="326" height="30" as="geometry" />
        </mxCell>
        <mxCell id="C_qJOQfqsXr8uZepRgQi-57" value="+ marker_location() : uchar" style="text;whiteSpace=wrap;html=1;" vertex="1" parent="C_qJOQfqsXr8uZepRgQi-5">
          <mxGeometry y="290" width="326" height="30" as="geometry" />
        </mxCell>
        <mxCell id="C_qJOQfqsXr8uZepRgQi-60" style="edgeStyle=orthogonalEdgeStyle;rounded=0;orthogonalLoop=1;jettySize=auto;html=1;exitX=0.5;exitY=0;exitDx=0;exitDy=0;entryX=0.5;entryY=1;entryDx=0;entryDy=0;endArrow=block;endFill=0;" edge="1" parent="WIyWlLk6GJQsqaUBKTNV-1" source="C_qJOQfqsXr8uZepRgQi-16" target="C_qJOQfqsXr8uZepRgQi-57">
          <mxGeometry relative="1" as="geometry" />
        </mxCell>
        <mxCell id="C_qJOQfqsXr8uZepRgQi-16" value="Square Overlay" style="swimlane;fontStyle=1;align=center;verticalAlign=top;childLayout=stackLayout;horizontal=1;startSize=26;horizontalStack=0;resizeParent=1;resizeParentMax=0;resizeLast=0;collapsible=1;marginBottom=0;whiteSpace=wrap;html=1;" vertex="1" parent="WIyWlLk6GJQsqaUBKTNV-1">
          <mxGeometry x="70" y="630" width="310" height="258" as="geometry" />
        </mxCell>
        <mxCell id="C_qJOQfqsXr8uZepRgQi-17" value="- Corners : vector&amp;lt;Point2f&amp;gt;" style="text;whiteSpace=wrap;html=1;" vertex="1" parent="C_qJOQfqsXr8uZepRgQi-16">
          <mxGeometry y="26" width="310" height="24" as="geometry" />
        </mxCell>
        <mxCell id="C_qJOQfqsXr8uZepRgQi-19" value="" style="line;strokeWidth=1;fillColor=none;align=left;verticalAlign=middle;spacingTop=-1;spacingLeft=3;spacingRight=3;rotatable=0;labelPosition=right;points=[];portConstraint=eastwest;strokeColor=inherit;" vertex="1" parent="C_qJOQfqsXr8uZepRgQi-16">
          <mxGeometry y="50" width="310" height="8" as="geometry" />
        </mxCell>
        <mxCell id="C_qJOQfqsXr8uZepRgQi-20" value="+ SquareOverlay()" style="text;strokeColor=none;fillColor=none;align=left;verticalAlign=top;spacingLeft=0;spacingRight=4;overflow=hidden;rotatable=0;points=[[0,0.5],[1,0.5]];portConstraint=eastwest;whiteSpace=wrap;html=1;" vertex="1" parent="C_qJOQfqsXr8uZepRgQi-16">
          <mxGeometry y="58" width="310" height="26" as="geometry" />
        </mxCell>
        <mxCell id="C_qJOQfqsXr8uZepRgQi-44" value="+ SquareOverlay(int)" style="text;strokeColor=none;fillColor=none;align=left;verticalAlign=top;spacingLeft=0;spacingRight=4;overflow=hidden;rotatable=0;points=[[0,0.5],[1,0.5]];portConstraint=eastwest;whiteSpace=wrap;html=1;" vertex="1" parent="C_qJOQfqsXr8uZepRgQi-16">
          <mxGeometry y="84" width="310" height="26" as="geometry" />
        </mxCell>
        <mxCell id="C_qJOQfqsXr8uZepRgQi-45" value="+ SquareOverlay(vector&amp;lt;Point2f&amp;gt;)" style="text;strokeColor=none;fillColor=none;align=left;verticalAlign=top;spacingLeft=0;spacingRight=4;overflow=hidden;rotatable=0;points=[[0,0.5],[1,0.5]];portConstraint=eastwest;whiteSpace=wrap;html=1;" vertex="1" parent="C_qJOQfqsXr8uZepRgQi-16">
          <mxGeometry y="110" width="310" height="26" as="geometry" />
        </mxCell>
        <mxCell id="C_qJOQfqsXr8uZepRgQi-21" value="+ ~SquareOverlay()" style="text;whiteSpace=wrap;html=1;" vertex="1" parent="C_qJOQfqsXr8uZepRgQi-16">
          <mxGeometry y="136" width="310" height="32" as="geometry" />
        </mxCell>
        <mxCell id="C_qJOQfqsXr8uZepRgQi-22" value="+ within_bounds(vector&amp;lt;Point2f&amp;gt;) : boolean" style="text;whiteSpace=wrap;html=1;" vertex="1" parent="C_qJOQfqsXr8uZepRgQi-16">
          <mxGeometry y="168" width="310" height="30" as="geometry" />
        </mxCell>
        <mxCell id="C_qJOQfqsXr8uZepRgQi-23" value="+ point_in_bounds(Point2f) : boolean" style="text;whiteSpace=wrap;html=1;" vertex="1" parent="C_qJOQfqsXr8uZepRgQi-16">
          <mxGeometry y="198" width="310" height="30" as="geometry" />
        </mxCell>
        <mxCell id="C_qJOQfqsXr8uZepRgQi-25" value="+ get_corners() : vector&amp;lt;Point2f&amp;gt;" style="text;whiteSpace=wrap;html=1;" vertex="1" parent="C_qJOQfqsXr8uZepRgQi-16">
          <mxGeometry y="228" width="310" height="30" as="geometry" />
        </mxCell>
        <mxCell id="C_qJOQfqsXr8uZepRgQi-62" style="edgeStyle=orthogonalEdgeStyle;rounded=0;orthogonalLoop=1;jettySize=auto;html=1;exitX=0.5;exitY=0;exitDx=0;exitDy=0;entryX=0.5;entryY=1;entryDx=0;entryDy=0;endArrow=block;endFill=0;" edge="1" parent="WIyWlLk6GJQsqaUBKTNV-1" source="C_qJOQfqsXr8uZepRgQi-46" target="C_qJOQfqsXr8uZepRgQi-57">
          <mxGeometry relative="1" as="geometry" />
        </mxCell>
        <mxCell id="C_qJOQfqsXr8uZepRgQi-46" value="Column Overlay" style="swimlane;fontStyle=1;align=center;verticalAlign=top;childLayout=stackLayout;horizontal=1;startSize=26;horizontalStack=0;resizeParent=1;resizeParentMax=0;resizeLast=0;collapsible=1;marginBottom=0;whiteSpace=wrap;html=1;" vertex="1" parent="WIyWlLk6GJQsqaUBKTNV-1">
          <mxGeometry x="480" y="630" width="310" height="230" as="geometry" />
        </mxCell>
        <mxCell id="C_qJOQfqsXr8uZepRgQi-47" value="- padding : int" style="text;whiteSpace=wrap;html=1;" vertex="1" parent="C_qJOQfqsXr8uZepRgQi-46">
          <mxGeometry y="26" width="310" height="24" as="geometry" />
        </mxCell>
        <mxCell id="C_qJOQfqsXr8uZepRgQi-48" value="" style="line;strokeWidth=1;fillColor=none;align=left;verticalAlign=middle;spacingTop=-1;spacingLeft=3;spacingRight=3;rotatable=0;labelPosition=right;points=[];portConstraint=eastwest;strokeColor=inherit;" vertex="1" parent="C_qJOQfqsXr8uZepRgQi-46">
          <mxGeometry y="50" width="310" height="8" as="geometry" />
        </mxCell>
        <mxCell id="C_qJOQfqsXr8uZepRgQi-49" value="+ ColumnOverlay()" style="text;strokeColor=none;fillColor=none;align=left;verticalAlign=top;spacingLeft=0;spacingRight=4;overflow=hidden;rotatable=0;points=[[0,0.5],[1,0.5]];portConstraint=eastwest;whiteSpace=wrap;html=1;" vertex="1" parent="C_qJOQfqsXr8uZepRgQi-46">
          <mxGeometry y="58" width="310" height="26" as="geometry" />
        </mxCell>
        <mxCell id="C_qJOQfqsXr8uZepRgQi-50" value="+ ColumnOverlay(int)" style="text;strokeColor=none;fillColor=none;align=left;verticalAlign=top;spacingLeft=0;spacingRight=4;overflow=hidden;rotatable=0;points=[[0,0.5],[1,0.5]];portConstraint=eastwest;whiteSpace=wrap;html=1;" vertex="1" parent="C_qJOQfqsXr8uZepRgQi-46">
          <mxGeometry y="84" width="310" height="26" as="geometry" />
        </mxCell>
        <mxCell id="C_qJOQfqsXr8uZepRgQi-53" value="+ within_bounds(vector&amp;lt;Point2f&amp;gt;) : boolean" style="text;whiteSpace=wrap;html=1;" vertex="1" parent="C_qJOQfqsXr8uZepRgQi-46">
          <mxGeometry y="110" width="310" height="30" as="geometry" />
        </mxCell>
        <mxCell id="C_qJOQfqsXr8uZepRgQi-54" value="+ point_in_bounds(Point2f) : boolean" style="text;whiteSpace=wrap;html=1;" vertex="1" parent="C_qJOQfqsXr8uZepRgQi-46">
          <mxGeometry y="140" width="310" height="30" as="geometry" />
        </mxCell>
        <mxCell id="C_qJOQfqsXr8uZepRgQi-55" value="+ get_padding() : int" style="text;whiteSpace=wrap;html=1;" vertex="1" parent="C_qJOQfqsXr8uZepRgQi-46">
          <mxGeometry y="170" width="310" height="30" as="geometry" />
        </mxCell>
        <mxCell id="C_qJOQfqsXr8uZepRgQi-58" value="+ location() : uchar" style="text;whiteSpace=wrap;html=1;" vertex="1" parent="C_qJOQfqsXr8uZepRgQi-46">
          <mxGeometry y="200" width="310" height="30" as="geometry" />
        </mxCell>
      </root>
    </mxGraphModel>
  </diagram>
</mxfile>
